<?xml version="1.0" encoding="UTF-8" standalone="no"?>
<!-- Created with Inkscape (http://www.inkscape.org/) -->

<svg
   xmlns:dc="http://purl.org/dc/elements/1.1/"
   xmlns:cc="http://creativecommons.org/ns#"
   xmlns:rdf="http://www.w3.org/1999/02/22-rdf-syntax-ns#"
   xmlns:svg="http://www.w3.org/2000/svg"
   xmlns="http://www.w3.org/2000/svg"
   xmlns:xlink="http://www.w3.org/1999/xlink"
   xmlns:sodipodi="http://sodipodi.sourceforge.net/DTD/sodipodi-0.dtd"
   xmlns:inkscape="http://www.inkscape.org/namespaces/inkscape"
   width="484.56549mm"
   height="322.79166mm"
   viewBox="0 0 484.56549 322.79166"
   version="1.1"
   id="svg8"
   inkscape:version="0.92.1 r15371"
   sodipodi:docname="attempt.svg"
   inkscape:export-filename="C:\Users\habit\Documents\MyWorkspace\WalkerTestWeb\walker-test-web\src\images\bitmap.png"
   inkscape:export-xdpi="194.60001"
   inkscape:export-ydpi="194.60001">
  <defs
     id="defs2">
    <inkscape:path-effect
       effect="simplify"
       id="path-effect4576"
       is_visible="true"
       steps="1"
       threshold="0.00888889"
       smooth_angles="360"
       helper_size="0"
       simplify_individual_paths="false"
       simplify_just_coalesce="false"
       simplifyindividualpaths="false"
       simplifyJustCoalesce="false" />
    <inkscape:path-effect
       simplifyJustCoalesce="false"
       simplifyindividualpaths="false"
       simplify_just_coalesce="false"
       simplify_individual_paths="false"
       helper_size="0"
       smooth_angles="360"
       threshold="0.00888889"
       steps="1"
       is_visible="true"
       id="path-effect4560"
       effect="simplify" />
    <inkscape:path-effect
       simplifyJustCoalesce="false"
       simplifyindividualpaths="false"
       simplify_just_coalesce="false"
       simplify_individual_paths="false"
       helper_size="0"
       smooth_angles="360"
       threshold="0.00888889"
       steps="1"
       is_visible="true"
       id="path-effect4556"
       effect="simplify" />
    <inkscape:path-effect
       effect="simplify"
       id="path-effect4786"
       is_visible="true"
       steps="1"
       threshold="0.00888889"
       smooth_angles="360"
       helper_size="0"
       simplify_individual_paths="false"
       simplify_just_coalesce="false"
       simplifyindividualpaths="false"
       simplifyJustCoalesce="false" />
    <linearGradient
       inkscape:collect="always"
       id="linearGradient4778">
      <stop
         style="stop-color:#c5c5c5;stop-opacity:1;"
         offset="0"
         id="stop4774" />
      <stop
         style="stop-color:#c5c5c5;stop-opacity:0;"
         offset="1"
         id="stop4776" />
    </linearGradient>
    <inkscape:path-effect
       effect="simplify"
       id="path-effect4722"
       is_visible="true"
       steps="1"
       threshold="0.00888889"
       smooth_angles="360"
       helper_size="0"
       simplify_individual_paths="false"
       simplify_just_coalesce="false"
       simplifyindividualpaths="false"
       simplifyJustCoalesce="false" />
    <linearGradient
       inkscape:collect="always"
       id="linearGradient4710">
      <stop
         style="stop-color:#0d356c;stop-opacity:1"
         offset="0"
         id="stop4704" />
      <stop
         id="stop4706"
         offset="0.40961722"
         style="stop-color:#104286;stop-opacity:0.74117647;" />
      <stop
         style="stop-color:#175bb7;stop-opacity:0.20784314"
         offset="1"
         id="stop4708" />
    </linearGradient>
    <linearGradient
       id="linearGradient4683"
       inkscape:collect="always">
      <stop
         id="stop4679"
         offset="0"
         style="stop-color:#0d356c;stop-opacity:1" />
      <stop
         style="stop-color:#104286;stop-opacity:0.74117647;"
         offset="0.32292363"
         id="stop4693" />
      <stop
         id="stop4681"
         offset="1"
         style="stop-color:#175bb7;stop-opacity:0.20784314" />
    </linearGradient>
    <inkscape:path-effect
       effect="simplify"
       id="path-effect4600"
       is_visible="true"
       steps="1"
       threshold="0.00888889"
       smooth_angles="360"
       helper_size="0"
       simplify_individual_paths="false"
       simplify_just_coalesce="false"
       simplifyindividualpaths="false"
       simplifyJustCoalesce="false" />
    <inkscape:path-effect
       effect="simplify"
       id="path-effect4565"
       is_visible="true"
       steps="1"
       threshold="0.00888889"
       smooth_angles="360"
       helper_size="0"
       simplify_individual_paths="false"
       simplify_just_coalesce="false"
       simplifyindividualpaths="false"
       simplifyJustCoalesce="false" />
    <inkscape:path-effect
       effect="simplify"
       id="path-effect4557"
       is_visible="true"
       steps="1"
       threshold="0.00888889"
       smooth_angles="360"
       helper_size="0"
       simplify_individual_paths="false"
       simplify_just_coalesce="false"
       simplifyindividualpaths="false"
       simplifyJustCoalesce="false" />
    <inkscape:path-effect
       effect="simplify"
       id="path-effect4552"
       is_visible="true"
       steps="1"
       threshold="0.00888889"
       smooth_angles="360"
       helper_size="0"
       simplify_individual_paths="false"
       simplify_just_coalesce="false"
       simplifyindividualpaths="false"
       simplifyJustCoalesce="false" />
    <inkscape:path-effect
       simplifyJustCoalesce="false"
       simplifyindividualpaths="false"
       simplify_just_coalesce="false"
       simplify_individual_paths="false"
       helper_size="0"
       smooth_angles="360"
       threshold="0.00888889"
       steps="1"
       is_visible="true"
       id="path-effect4543"
       effect="simplify" />
    <inkscape:path-effect
       effect="simplify"
       id="path-effect4538"
       is_visible="true"
       steps="1"
       threshold="0.00888889"
       smooth_angles="360"
       helper_size="0"
       simplify_individual_paths="false"
       simplify_just_coalesce="false"
       simplifyindividualpaths="false"
       simplifyJustCoalesce="false" />
    <inkscape:path-effect
       effect="simplify"
       id="path-effect4531"
       is_visible="true"
       steps="1"
       threshold="0.00888889"
       smooth_angles="360"
       helper_size="0"
       simplify_individual_paths="false"
       simplify_just_coalesce="false"
       simplifyindividualpaths="false"
       simplifyJustCoalesce="false" />
    <inkscape:path-effect
       effect="simplify"
       id="path-effect4517"
       is_visible="true"
       steps="1"
       threshold="0.00888889"
       smooth_angles="360"
       helper_size="0"
       simplify_individual_paths="false"
       simplify_just_coalesce="false"
       simplifyindividualpaths="false"
       simplifyJustCoalesce="false" />
    <inkscape:path-effect
       effect="simplify"
       id="path-effect4513"
       is_visible="true"
       steps="1"
       threshold="0.00888889"
       smooth_angles="360"
       helper_size="0"
       simplify_individual_paths="false"
       simplify_just_coalesce="false"
       simplifyindividualpaths="false"
       simplifyJustCoalesce="false" />
    <inkscape:path-effect
       effect="simplify"
       id="path-effect4501"
       is_visible="true"
       steps="1"
       threshold="0.00888889"
       smooth_angles="360"
       helper_size="0"
       simplify_individual_paths="false"
       simplify_just_coalesce="false"
       simplifyindividualpaths="false"
       simplifyJustCoalesce="false" />
    <linearGradient
       inkscape:collect="always"
       id="linearGradient4493">
      <stop
         style="stop-color:#ad2412;stop-opacity:1"
         offset="0"
         id="stop4489" />
      <stop
         style="stop-color:#e35643;stop-opacity:1"
         offset="1"
         id="stop4491" />
    </linearGradient>
    <linearGradient
       inkscape:collect="always"
       xlink:href="#linearGradient4493"
       id="linearGradient4495"
       x1="102.80952"
       y1="286.79465"
       x2="120.95241"
       y2="-19.36607"
       gradientUnits="userSpaceOnUse" />
    <linearGradient
       inkscape:collect="always"
       xlink:href="#linearGradient4710"
       id="linearGradient4637"
       x1="-30.79973"
       y1="234.56912"
       x2="-48.971905"
       y2="283.24338"
       gradientUnits="userSpaceOnUse"
       gradientTransform="translate(3.2074683,-1.0691181)" />
    <linearGradient
       inkscape:collect="always"
       xlink:href="#linearGradient4683"
       id="linearGradient4677"
       x1="-125.99751"
       y1="171.56421"
       x2="-114.49792"
       y2="170.05232"
       gradientUnits="userSpaceOnUse"
       gradientTransform="translate(13.607372,56.31845)" />
    <linearGradient
       inkscape:collect="always"
       xlink:href="#linearGradient4710"
       id="linearGradient4748"
       gradientUnits="userSpaceOnUse"
       gradientTransform="translate(-264.0217,-116.35186)"
       x1="-30.79973"
       y1="234.56912"
       x2="-48.971905"
       y2="283.24338" />
    <linearGradient
       inkscape:collect="always"
       xlink:href="#linearGradient4683"
       id="linearGradient4750"
       gradientUnits="userSpaceOnUse"
       gradientTransform="translate(-253.6218,-58.96429)"
       x1="-125.99751"
       y1="171.56421"
       x2="-114.49792"
       y2="170.05232" />
    <linearGradient
       inkscape:collect="always"
       xlink:href="#linearGradient4778"
       id="linearGradient4780"
       x1="-375.056"
       y1="99.645531"
       x2="-344.40115"
       y2="99.226784"
       gradientUnits="userSpaceOnUse" />
    <linearGradient
       inkscape:collect="always"
       xlink:href="#linearGradient4778"
       id="linearGradient4813"
       x1="-377.56561"
       y1="70.422752"
       x2="-371.99329"
       y2="70.422752"
       gradientUnits="userSpaceOnUse"
       gradientTransform="translate(0.53453906,0.46772167)" />
    <linearGradient
       inkscape:collect="always"
       xlink:href="#linearGradient4778"
       id="linearGradient4813-9"
       x1="-377.56561"
       y1="70.422752"
       x2="-371.99329"
       y2="70.422752"
       gradientUnits="userSpaceOnUse"
       gradientTransform="translate(267.76372,115.75046)" />
    <linearGradient
       gradientTransform="translate(267.22918,115.28274)"
       inkscape:collect="always"
       xlink:href="#linearGradient4778"
       id="linearGradient4780-1"
       x1="-375.056"
       y1="99.645531"
       x2="-344.40115"
       y2="99.226784"
       gradientUnits="userSpaceOnUse" />
  </defs>
  <sodipodi:namedview
     id="base"
     pagecolor="#ffffff"
     bordercolor="#666666"
     borderopacity="1.0"
     inkscape:pageopacity="0.0"
     inkscape:pageshadow="2"
     inkscape:zoom="0.12374369"
     inkscape:cx="2091.2776"
     inkscape:cy="82.825103"
     inkscape:document-units="mm"
     inkscape:current-layer="layer1"
     showgrid="false"
     inkscape:snap-global="true"
     inkscape:window-width="1366"
     inkscape:window-height="705"
     inkscape:window-x="-8"
     inkscape:window-y="-8"
     inkscape:window-maximized="1" />
  <metadata
     id="metadata5">
    <rdf:RDF>
      <cc:Work
         rdf:about="">
        <dc:format>image/svg+xml</dc:format>
        <dc:type
           rdf:resource="http://purl.org/dc/dcmitype/StillImage" />
        <dc:title />
      </cc:Work>
    </rdf:RDF>
  </metadata>
  <g
     inkscape:label="Layer 1"
     inkscape:groupmode="layer"
     id="layer1"
     transform="translate(117.92857,23.523809)">
    <path
       inkscape:connector-curvature="0"
       id="path4732"
       d="m -386.60937,32.03869 83.85044,151.94642 h -85.41774 z"
       style="fill:#185fc0;fill-opacity:1;stroke:#000000;stroke-width:0.26938662px;stroke-linecap:butt;stroke-linejoin:miter;stroke-opacity:1" />
    <path
       inkscape:connector-curvature="0"
       id="path4734"
       d="m -386.60937,32.03869 -0.18107,17.53691 c 0.51913,-0.0363 1.03792,-0.0707 1.5562,-0.093 1.93098,-0.0831 4.1539,-0.12517 5.61304,1.31878 0.90842,0.89896 1.89603,1.67076 3.4381,1.85828 0.32056,0.039 0.63326,0.0214 0.93051,-0.0408 z"
       style="fill:#ffffff;fill-opacity:1;stroke:none;stroke-width:0.26938662px;stroke-linecap:butt;stroke-linejoin:miter;stroke-opacity:1" />
    <path
       inkscape:connector-curvature="0"
       id="path4736"
       d="m -375.25259,52.61886 c -1.45414,0.56992 -2.79993,1.21014 -3.13919,2.81688 -0.9093,4.30646 1.02527,8.60031 1.373,12.89431 0.25592,3.16031 3.24344,3.90207 6.01855,5.07824 2.71884,1.15231 -0.34079,5.15086 1.49996,6.39392 2.74905,1.85644 0.40799,4.94977 -0.45106,7.26623 -0.96655,2.60634 -2.87182,5.14824 -2.34529,8.12301 0.56031,3.16555 3.01449,5.38433 6.2291,6.88951 2.46052,1.15209 5.26285,1.76325 7.97225,1.06401 2.27687,-0.58761 5.81809,-1.02005 6.21623,-3.65817 0.20267,-1.34287 0.27215,-2.69099 0.26035,-4.04006 z"
       style="fill:#ffffff;fill-opacity:1;stroke:none;stroke-width:0.26938662px;stroke-linecap:butt;stroke-linejoin:miter;stroke-opacity:1" />
    <path
       sodipodi:nodetypes="ccccc"
       inkscape:connector-curvature="0"
       id="path4740"
       d="m -349.82582,98.69419 32.10804,83.34574 14.95885,1.94518 v 0 z"
       style="fill:url(#linearGradient4748);fill-opacity:1;stroke:none;stroke-width:0.26899999;stroke-linecap:butt;stroke-linejoin:miter;stroke-miterlimit:4;stroke-dasharray:none;stroke-opacity:1" />
    <path
       inkscape:connector-curvature="0"
       id="path4744"
       d="m -386.60932,32.03883 -1.56735,151.94628 h 36.5187 z"
       style="fill:url(#linearGradient4750);fill-opacity:1;stroke:#000000;stroke-width:0.26938662px;stroke-linecap:butt;stroke-linejoin:miter;stroke-opacity:0" />
    <path
       style="fill:url(#linearGradient4780);fill-opacity:1;stroke:#000000;stroke-width:0;stroke-linecap:butt;stroke-linejoin:miter;stroke-miterlimit:4;stroke-dasharray:none;stroke-opacity:0.97979796"
       d="m -372.10271,93.94347 a 0.64848808,0.76535308 0 0 0 -0.2806,0.0894 c -0.008,0.379576 0.0172,0.765005 0.0868,1.158584 0.56031,3.165551 3.01447,5.384326 6.22908,6.889506 2.46052,1.15209 5.26272,1.76326 7.97212,1.06402 2.27687,-0.58761 5.81802,-1.02006 6.21616,-3.65818 0.20267,-1.342871 0.27225,-2.690995 0.26045,-4.040063 l -0.65216,-1.181841 c 0.0573,2.592758 -0.28704,4.247272 -0.88263,5.250842 -0.63523,1.070372 -1.58136,1.569272 -3.01119,1.779222 -0.29975,0.044 -0.8955,0.17611 -1.72237,0.33331 -0.82686,0.1572 -1.84707,0.33344 -2.85099,0.44442 -1.00391,0.11097 -1.99563,0.15335 -2.72128,0.0615 -0.36283,-0.0459 -0.6588,-0.12815 -0.83509,-0.21756 -0.17628,-0.0894 -0.20072,-0.15556 -0.19999,-0.15348 l -0.0961,-0.2744 -0.22634,-0.12764 c 0,0 -0.91685,-0.50943 -1.85622,-1.04903 -0.46969,-0.26981 -0.9443,-0.546986 -1.30948,-0.767921 -0.1826,-0.110466 -0.33851,-0.208036 -0.44648,-0.279051 -0.054,-0.03551 -0.0972,-0.06593 -0.11989,-0.08268 -0.0226,-0.01675 -0.042,-0.05123 0.0377,0.04289 -1.12908,-1.332535 -1.25903,-0.581062 -2.97346,-4.81883 a 0.64848808,0.76535308 0 0 0 -0.61805,-0.463021 z"
       id="path4767"
       inkscape:connector-curvature="0" />
    <path
       style="fill:url(#linearGradient4813);fill-opacity:1;stroke:none;stroke-width:0.1;stroke-linecap:butt;stroke-linejoin:miter;stroke-miterlimit:4;stroke-dasharray:none;stroke-opacity:0.97979796"
       d="m -376.14274,68.374087 -0.88832,0.305408 c 0.003,0.03946 0.009,0.07888 0.0124,0.11834 0.0108,0.133231 0.0283,0.260657 0.0486,0.385506 0.63604,1.519531 1.61644,2.423483 2.53473,3.007051 0.79337,0.504182 1.53136,0.826291 1.95286,1.081587 0.11116,0.04483 0.22029,0.0901 0.33228,0.134877 l 0.69143,-0.692981 c -0.62847,-0.628473 -1.52638,-0.863574 -2.40451,-1.421619 -0.87812,-0.558046 -1.74075,-1.348836 -2.27944,-2.918169 z"
       id="path4782"
       inkscape:connector-curvature="0" />
    <g
       id="g5028">
      <rect
         ry="1.3239335e-005"
         y="-23.523809"
         x="-117.92857"
         height="322.79166"
         width="484.56549"
         id="rect4485"
         style="fill:url(#linearGradient4495);fill-opacity:1;stroke:none;stroke-width:44.5208168;stroke-linecap:butt;stroke-linejoin:miter;stroke-miterlimit:11.30000019;stroke-dasharray:none;stroke-dashoffset:0;stroke-opacity:1" />
      <g
         transform="matrix(0.44178878,0.0584459,-0.04812705,0.53651212,-28.06967,174.08995)"
         id="g4605">
        <path
           style="fill:#185fc0;fill-opacity:1;stroke:#000000;stroke-width:0.26458332px;stroke-linecap:butt;stroke-linejoin:miter;stroke-opacity:1"
           d="m 366.4978,129.07 16.63095,-80.130952 7.55952,44.60119 12.85119,-53.67262 18.14286,2.26786 27.97024,-9.82738 33.2619,30.99405 23.43452,-31.75 30.99405,78.619052 z"
           id="path4509"
           inkscape:connector-curvature="0" />
        <path
           style="fill:#ffffff;fill-opacity:1;stroke:#000000;stroke-width:0.26458332px;stroke-linecap:butt;stroke-linejoin:miter;stroke-opacity:1"
           d="m 506.34899,31.552145 -23.43476,31.75 -33.26204,-30.993974 -27.96987,9.827307 -18.14309,-2.268077 -8.17157,34.127114 c 7.49427,-0.934458 15.31403,-4.618222 19.57501,0.914157 4.22296,5.48296 8.28162,10.779834 14.34849,14.924153 8.27786,5.654659 5.29804,17.796855 6.28901,26.678475 0.2104,1.88554 0.26577,3.46554 0.44495,4.86741 l 10.6753,-1.18081 c -0.005,-0.53345 0.0179,-1.07498 0.0775,-1.62367 1.00897,-9.28346 -7.2204,-22.443739 0.96274,-28.113019 6.1817,-4.282689 14.57204,-7.633269 22.71541,-7.055901 11.59407,0.822032 24.05488,4.648595 34.8878,0.443384 6.79881,-2.639219 10.69758,-0.802219 11.75948,-11.22567 0.28959,-2.842662 1.61097,-4.487304 3.10936,-5.904032 z m -123.22038,17.387054 -4.43746,21.38164 c 2.71204,0.715574 5.50937,1.387324 7.83207,2.583821 0.23873,0.122978 0.48035,0.23323 0.724,0.336415 z"
           id="path4596"
           inkscape:connector-curvature="0" />
      </g>
      <ellipse
         ry="88.068451"
         rx="89.8843"
         cy="111.41368"
         cx="132.21764"
         id="path4487"
         style="fill:#f7dc65;fill-opacity:0.91919191;stroke:none;stroke-width:84.99097443;stroke-linecap:butt;stroke-linejoin:miter;stroke-miterlimit:11.30000019;stroke-dasharray:none;stroke-dashoffset:0;stroke-opacity:1" />
      <rect
         ry="4.3937039e-006"
         y="270.04941"
         x="-119.44048"
         height="43.581512"
         width="554.1131"
         id="rect4607"
         style="fill:#398b22;fill-opacity:1;stroke:#000000;stroke-width:0.19901672;stroke-linecap:butt;stroke-linejoin:miter;stroke-miterlimit:4;stroke-dasharray:none;stroke-dashoffset:0;stroke-opacity:1" />
      <g
         id="g4594">
        <path
           style="fill:#185fc0;fill-opacity:0.98989898;stroke:#000000;stroke-width:0.26458332px;stroke-linecap:butt;stroke-linejoin:miter;stroke-opacity:1"
           d="m -83.910714,228.58631 c 0.179445,-9.68322 0.0013,-21.66116 9.283622,-28.33864 7.403723,-5.32604 17.306876,2.76835 23.968592,-1.86378 6.255125,-4.34941 7.206299,-13.20487 7.921283,-20.23329 0.725898,-7.13571 3.71705,-10.4992 11.711018,-12.19553 7.196769,-1.52716 11.539646,2.71409 16.549129,9.52593 5.2082634,7.08214 13.3751464,13.01277 13.50485883,22.47234 0.14410069,10.50886 15.15442017,3.67257 15.97807617,11.99503 0.674867,6.81906 -0.0444,14.10109 5.440483,19.62905 5.824481,5.87022 10.458515,12.7006 12.499138,20.98376 3.132147,12.7138 4.53581,25.82859 12.094751,37.50071 3.596206,5.55307 17.259477,17.13368 10.652191,17.19452 -7.274292,0.067 -14.767007,-0.36121 -22.136182,0.43435 -8.235388,0.88907 -15.957285,-7.21156 -23.461611,-4.02754 -9.79655202,4.15659 -20.760122,3.2615 -31.126875,2.85905 -9.358892,-0.36332 -25.606657,7.19239 -28.104663,-1.85262 -1.672038,-6.05427 -4.473894,-11.72267 -6.792046,-17.74642 -3.322894,-8.63458 -12.623831,-12.88419 -16.67502,-20.82815 -4.591491,-9.00344 -1.078355,-22.30652 -9.038888,-28.7052 -2.251318,-1.80961 3.275337,-12.06483 -2.267857,-6.80357 z"
           id="path4499"
           inkscape:connector-curvature="0"
           inkscape:path-effect="#path-effect4501"
           inkscape:original-d="m -83.910714,228.58631 c 0.03711,-8.97285 -0.447588,-19.96312 6.04762,-26.45833 1.738077,-1.73808 7.410567,-3.32731 9.827379,-4.53572 4.003077,-2.00154 15.855627,3.04319 18.898812,0 5.63141,-5.63141 5.88582,-26.29653 10.583333,-30.99404 0.563155,-0.56316 3.807394,0.24277 4.535712,0 4.266139,-1.42205 15.087158,-1.57569 17.386906,3.02381 1.092398,2.18479 1.717556,5.60014 3.023809,7.55952 2.539804,3.8097 7.1102299,6.66094 9.0714274,10.58333 2.4605275,4.92105 3.7513415,13.57872 6.8035725,16.63095 1.269032,1.26904 10.1088721,-0.19297 12.0952391,3.77977 2.258452,4.5169 -0.245832,10.84762 2.267855,15.875 3.052871,6.10574 10.279404,11.48737 12.851191,16.63095 6.150244,12.30049 5.001569,28.90196 10.583333,40.06547 2.917563,5.83512 15.875,19.81475 15.875,24.19048 0,0.75594 -1.511904,0 -2.267858,0 -1.929114,0 -3.54208,0.75594 -5.291666,0.75594 -14.210081,0 -19.003637,1.16761 -33.261903,-4.5357 -2.419453,-0.96779 -7.7031881,1.5598 -9.8273821,2.26785 -5.852316,1.95077 -52.5294959,1.14313 -54.4285689,-0.75594 -1.537359,-1.53736 -1.242936,-6.26562 -2.267858,-8.31548 -2.215673,-4.43135 -4.213547,-9.29045 -6.803572,-13.60715 -6.450756,-10.75127 -14.585833,-10.94108 -17.386903,-24.94643 -1.516949,-7.58473 -3.12896,-14.57339 -6.047621,-20.41071 -1.441402,-2.8828 1.105196,-8.68387 0,-8.31547 -0.861917,0.2873 -1.511903,1.00793 -2.267857,1.5119 z" />
        <path
           style="fill:#ffffff;fill-opacity:0.98989898;stroke:none;stroke-width:0.26458332px;stroke-linecap:butt;stroke-linejoin:miter;stroke-opacity:1"
           d="m -28.45467,165.647 c -0.817287,0.0169 -1.672338,0.11762 -2.571935,0.30851 -7.99397,1.69631 -10.985024,5.05942 -11.710913,12.19512 -0.714981,7.02842 -1.665833,15.88398 -7.920964,20.23339 -6.661711,4.63212 -16.565358,-3.46208 -23.96908,1.86397 -9.282618,6.67749 -9.103722,18.6551 -9.283152,28.33832 5.54318,-5.26126 0.01625,4.99411 2.267561,6.80372 0.983713,0.79071 1.791624,1.6871 2.461866,2.66754 2.268143,-4.20586 1.776069,-9.06218 8.996865,-9.84798 6.817021,-0.74186 8.935855,6.80894 16.446026,6.57789 6.088769,-0.18732 11.158321,4.78861 17.494023,2.81172 4.818607,-1.50352 6.284396,0.17097 12.246795,-1.05007 6.23635,-1.27714 12.114011,-4.41344 18.4670905,-4.33152 6.31637935,0.0814 12.8673118,-0.73884 19.0655015,-2.23604 2.296139,-0.55464 3.658357,-1.91053 4.444175,-3.66024 -2.797805,-4.9677 -2.424258,-10.82326 -2.973462,-16.37264 -0.82365,-8.32246 -15.83425384,-1.48627 -15.97835386,-11.99513 -0.12970934,-9.45956 -8.29633044,-15.3904 -13.50460014,-22.47253 -4.383305,-5.96036 -8.256426,-9.95217 -13.977443,-9.83403 z"
           id="path4541"
           inkscape:connector-curvature="0" />
      </g>
      <g
         id="g4584">
        <path
           style="fill:#185fc0;stroke:#000000;stroke-width:0.26458332px;stroke-linecap:butt;stroke-linejoin:miter;stroke-opacity:1;fill-opacity:1"
           d="m 377.22024,87.60119 c 0,0 -199.57142,161.77381 -202.59524,205.61906 -3.02382,43.84521 108.10118,31.75 108.10118,31.75 l 147.41073,-26.45834 z"
           id="path4505"
           inkscape:connector-curvature="0" />
        <path
           style="fill:#ffffff;fill-opacity:1;stroke:#000000;stroke-width:0.26458332px;stroke-linecap:butt;stroke-linejoin:miter;stroke-opacity:1"
           d="m 377.22024,87.60119 c 0,0 -45.35456,36.76773 -93.14728,79.99305 -1.21002,2.56568 -2.36352,5.18195 -3.66956,7.72665 -3.13666,6.11168 -8.60737,8.09974 -14.61098,9.03253 -4.79041,4.45522 -9.54667,8.93451 -14.23273,13.41158 3.86281,4.94618 9.915,8.4128 14.84508,6.8895 9.59927,-2.96597 14.92018,-13.41118 25.15093,-15.0337 8.62197,-1.36738 22.75347,-3.71823 23.52984,-13.44931 0.77772,-9.74792 14.21942,-3.17172 20.58633,-5.3144 10.50414,-3.53501 12.5081,6.48943 22.0245,8.71988 10.0412,2.35344 12.59718,-9.68713 20.75482,-10.67894 8.05399,-0.97921 8.49373,-10.64507 14.98356,-13.43122 0.24757,-0.10628 0.49062,-0.21594 0.7302,-0.32918 z"
           id="path4561"
           inkscape:connector-curvature="0" />
      </g>
      <g
         id="g4580">
        <path
           style="fill:#185fc0;fill-opacity:1;stroke:#000000;stroke-width:0.26458332px;stroke-linecap:butt;stroke-linejoin:miter;stroke-opacity:1"
           d="m 212.4226,230.4762 c -47.76511,-1.8651 -88.44642,99.02975 -88.44642,99.02975 l 158.75,-4.5357 c 0,0 -45.16696,-93.51253 -70.30358,-94.49405 z"
           id="path4503"
           inkscape:connector-curvature="0"
           sodipodi:nodetypes="sccs" />
        <path
           style="fill:#ffffff;fill-opacity:1;stroke:#000000;stroke-width:0.26458332px;stroke-linecap:butt;stroke-linejoin:miter;stroke-opacity:1"
           d="m 211.35352,228.87256 c -31.11264,-0.17753 -59.08947,42.76738 -74.58768,72.16149 2.3536,-0.0383 4.96906,-0.32083 7.87082,-0.93535 12.38949,-2.62371 22.58812,-20.99215 55.45606,-29.84675 26.84772,-7.23277 36.51528,-14.27915 39.31851,-19.64945 -9.61009,-12.36798 -19.21983,-21.40317 -26.93995,-21.70462 -0.37317,-0.0146 -0.74546,-0.0232 -1.11776,-0.0253 z"
           id="path4573"
           inkscape:connector-curvature="0" />
      </g>
      <g
         transform="translate(54.428572,-29.104167)"
         id="g4650">
        <g
           transform="translate(133.51174,70.611949)"
           id="g4662">
          <path
             id="path4712"
             d="m -435.69336,657.83398 c -0.25917,0.64235 -0.52661,1.27893 -0.80078,1.91211 -0.008,0.0187 -0.0153,0.0379 -0.0234,0.0566 -0.0289,0.0666 -0.0549,0.13474 -0.084,0.20118 -0.12907,0.29519 -0.26795,0.58394 -0.40039,0.87695 -0.16706,0.36972 -0.33527,0.73927 -0.50782,1.10547 -0.0649,0.13762 -0.12379,0.27889 -0.18945,0.41601 0,0 0,0.002 0,0.002 -0.1681,0.35107 -0.34425,0.69731 -0.51758,1.04492 -0.0485,0.0974 -0.0956,0.19584 -0.14453,0.29297 -0.25413,0.5039 -0.51575,1.00185 -0.78125,1.49804 -0.0668,0.12485 -0.13171,0.25066 -0.19922,0.375 -0.26147,0.48143 -0.53205,0.95798 -0.80468,1.43165 -0.0712,0.12381 -0.13893,0.24978 -0.21094,0.37304 -0.32375,0.55397 -0.65443,1.10192 -0.99414,1.64453 -0.0178,0.0285 -0.0349,0.0575 -0.0527,0.0859 -0.002,0.003 -0.004,0.007 -0.006,0.01 -0.0232,0.0368 -0.0451,0.0745 -0.0684,0.11132 0,0 0,0.002 0,0.002 -0.12026,0.1904 -0.25054,0.37363 -0.37304,0.5625 -0.29372,0.45405 -0.5909,0.90624 -0.89649,1.35156 -0.0566,0.0824 -0.10904,0.16792 -0.16601,0.25 0,0 0,0.002 0,0.002 -0.16581,0.23886 -0.34045,0.47082 -0.50977,0.70703 -0.15597,0.21771 -0.30975,0.43692 -0.46875,0.65235 -0.25194,0.34117 -0.51185,0.67641 -0.77148,1.01172 -0.14744,0.19051 -0.29145,0.38368 -0.44141,0.57226 -0.29394,0.36945 -0.59663,0.73191 -0.90039,1.09375 -0.1334,0.159 -0.26311,0.32102 -0.39844,0.47852 -0.28947,0.33672 -0.58833,0.66637 -0.88672,0.99609 -0.16495,0.18236 -0.32447,0.36866 -0.49218,0.54883 -10e-4,10e-4 -0.003,0.003 -0.004,0.004 0,0 0,0.002 0,0.002 -0.0482,0.0517 -0.1,0.10079 -0.14844,0.15234 -0.50251,0.53524 -1.01927,1.05913 -1.54687,1.57422 -0.0453,0.0441 -0.0874,0.0908 -0.13281,0.13477 -0.0943,0.0913 -0.1959,0.17685 -0.29102,0.26758 -0.44505,0.42446 -0.89829,0.84218 -1.36133,1.25195 -0.0955,0.0845 -0.18496,0.17394 -0.28125,0.25781 -0.0917,0.0799 -0.19085,0.15315 -0.2832,0.23242 -0.45709,0.39229 -0.92383,0.77657 -1.39844,1.1543 -0.12271,0.0977 -0.23736,0.20212 -0.36133,0.29883 -0.0489,0.0381 -0.10132,0.0734 -0.15039,0.11133 -0.65397,0.50624 -1.32038,1.00247 -2.00781,1.48047 -0.39341,0.27355 -0.79014,0.53471 -1.18945,0.78515 -0.54292,0.34051 -1.09303,0.65369 -1.64649,0.95313 -0.11751,0.0636 -0.23554,0.12573 -0.35351,0.1875 -0.55229,0.28919 -1.10771,0.56553 -1.66993,0.8164 -0.83201,0.37128 -1.6747,0.70174 -2.52734,0.99414 -0.57807,0.19825 -1.16296,0.37474 -1.75,0.53907 -0.12806,0.0358 -0.25629,0.0712 -0.38476,0.10546 -0.58558,0.15628 -1.17364,0.30079 -1.76758,0.42579 -0.53951,0.11353 -1.08476,0.20573 -1.63086,0.29492 -0.79184,0.12932 -1.58772,0.24254 -2.39258,0.32422 -9.06564,0.92003 -18.92985,-1.04709 -28.93164,-2.88672 -1.90283,-0.34999 -3.81057,-0.69177 -5.71875,-1.01172 -0.8194,-0.1374 -1.63786,-0.26814 -2.45703,-0.39453 -0.38275,-0.0591 -0.76585,-0.11771 -1.14844,-0.17383 -1.19247,-0.17495 -2.38298,-0.33087 -3.57226,-0.4707 -0.58093,-0.0683 -1.16239,-0.13531 -1.74219,-0.19336 -0.19601,-0.0196 -0.39203,-0.0402 -0.58789,-0.0586 -3.77135,-0.35374 -7.51277,-0.46315 -11.19141,-0.17968 -0.22847,0.0182 -0.45742,0.0339 -0.68555,0.0547 -0.26086,0.0237 -0.51911,0.0619 -0.77929,0.0899 -1.45883,0.15567 -2.90938,0.36527 -4.34375,0.66601 -0.0592,0.0124 -0.11855,0.0244 -0.17774,0.0371 -1.1557,0.24788 -2.30225,0.548 -3.43945,0.90235 -0.33759,0.10517 -0.6759,0.20904 -1.01172,0.32421 -0.46547,0.15964 -0.9287,0.32832 -1.39062,0.50782 0,0 -0.002,0 -0.002,0 -0.27081,0.10526 -0.53904,0.22169 -0.80859,0.33398 -0.0105,0.004 -0.0208,0.009 -0.0312,0.0137 -0.3573,0.14918 -0.71336,0.305 -1.06836,0.4668 -0.53254,0.24285 -1.06267,0.50105 -1.58984,0.77344 -0.35537,0.18365 -0.70966,0.37279 -1.0625,0.57031 -0.0105,0.006 -0.0208,0.0117 -0.0312,0.0176 -0.0119,0.007 -0.0233,0.0148 -0.0352,0.0215 -0.52982,0.29806 -1.05623,0.6129 -1.58008,0.94336 -0.0404,0.0255 -0.0808,0.0505 -0.12109,0.0762 -0.30819,0.19614 -0.61583,0.39772 -0.92188,0.60547 -0.28365,0.19251 -0.56784,0.38129 -0.84961,0.58399 -0.54744,0.3938 -1.08701,0.79186 -1.61718,1.19531 0,0 -0.002,0.002 -0.002,0.002 -0.53011,0.40347 -1.05133,0.81172 -1.56445,1.22461 0,0 -0.002,0.002 -0.002,0.002 -0.51383,0.41347 -1.01855,0.83121 -1.51563,1.25391 0,0 -0.002,0 -0.002,0 -0.49669,0.42239 -0.9846,0.84986 -1.46485,1.28125 0,0 -0.002,0 -0.002,0 -0.4799,0.43111 -0.9503,0.86676 -1.41406,1.30664 0,0 -0.002,0.002 -0.002,0.002 -0.46442,0.4405 -0.92063,0.88685 -1.36915,1.33593 -0.44817,0.44876 -0.88969,0.90039 -1.32226,1.35742 -3.2e-4,3.4e-4 3.2e-4,0.002 0,0.002 -0.43255,0.45702 -0.85815,0.91759 -1.27539,1.38281 -3.2e-4,3.6e-4 3.2e-4,0.002 0,0.002 -0.83477,0.93081 -1.63889,1.87587 -2.41406,2.83789 0,0 -0.002,0.002 -0.002,0.002 -0.77486,0.96172 -1.52071,1.93851 -2.23828,2.92968 0,0 0,0.002 0,0.002 -0.54645,0.75481 -1.0618,1.52587 -1.57617,2.29687 -0.16101,0.2415 -0.33612,0.47572 -0.49414,0.71875 0,0 -0.002,0.002 -0.002,0.002 -0.60818,0.93536 -1.18639,1.88645 -1.75,2.84375 -0.13893,0.23597 -0.27388,0.47367 -0.41016,0.71093 -0.43169,0.75149 -0.85012,1.50953 -1.25586,2.27344 -0.12826,0.24151 -0.25904,0.4819 -0.38477,0.72461 -0.5074,0.97947 -0.99965,1.96471 -1.46679,2.96289 -0.46054,0.98409 -0.89725,1.97948 -1.32031,2.98047 -0.12796,0.30277 -0.25038,0.60787 -0.375,0.91211 -0.30998,0.75665 -0.61052,1.51784 -0.9004,2.2832 -0.10077,0.26611 -0.20237,0.53171 -0.30078,0.79883 -0.38123,1.03475 -0.75094,2.07401 -1.09765,3.12305 -2e-4,5.8e-4 1.9e-4,0.001 0,0.002 -0.75972,2.29872 -1.4397,4.6292 -2.04688,6.98633 -0.30358,1.17848 -0.5886,2.36236 -0.85742,3.55273 -1.4e-4,6.2e-4 1.4e-4,10e-4 0,0.002 -0.26866,1.18975 -0.52155,2.38589 -0.75781,3.58593 -0.21683,1.10141 -0.41609,2.20782 -0.60742,3.31641 -0.0484,0.28022 -0.0938,0.56117 -0.14063,0.8418 -0.10693,0.64114 -0.20565,1.28467 -0.30469,1.92773 -0.24681,1.60327 -0.48014,3.20982 -0.68164,4.82227 -0.2045,1.63627 -0.37987,3.27673 -0.54297,4.91797 -0.0407,0.40997 -0.0808,0.82033 -0.11914,1.23046 -0.15059,1.60966 -0.28885,3.22018 -0.40625,4.83008 -9.5e-4,0.013 -0.003,0.026 -0.004,0.0391 0,0 0,0.002 0,0.002 -0.0927,1.274 -0.17523,2.54657 -0.25,3.81836 -0.1149,1.95403 -0.19907,3.89896 -0.2793,5.84179 -0.0667,1.61546 -0.12136,3.22298 -0.16992,4.82618 -0.0304,1.00421 -0.0668,2.01363 -0.0918,3.01171 -0.0264,1.05584 -0.0445,2.09672 -0.0664,3.14454 -0.0824,3.94283 -0.14854,7.86744 -0.21875,11.65625 0.6547,-0.62141 1.26858,-1.18569 1.84375,-1.69532 0.54055,-0.47896 1.0377,-0.89626 1.51171,-1.28125 0.11704,-0.0951 0.22282,-0.1761 0.33594,-0.26562 0.33321,-0.26365 0.65299,-0.50798 0.95313,-0.72461 0.1392,-0.10048 0.27394,-0.19451 0.40625,-0.28516 0.26352,-0.18053 0.51301,-0.33987 0.75,-0.48242 0.11529,-0.0693 0.23454,-0.14252 0.34375,-0.20312 0.25809,-0.14327 0.49543,-0.25953 0.7207,-0.35547 0.0603,-0.0257 0.12949,-0.0636 0.1875,-0.0859 0.27536,-0.10624 0.52382,-0.17237 0.75,-0.20703 0.1606,-0.0246 0.30998,-0.033 0.44727,-0.0234 0.0392,0.003 0.0759,0.0101 0.11328,0.0156 0.13463,0.0196 0.26142,0.0517 0.37304,0.10546 0.005,0.002 0.011,0.002 0.0156,0.004 0.002,0.001 0.004,0.003 0.006,0.004 0.11523,0.0583 0.213,0.14089 0.30469,0.23437 0.0225,0.023 0.0453,0.0453 0.0664,0.0703 0.0827,0.0978 0.15604,0.20985 0.21875,0.3379 0.0849,0.17369 0.15405,0.37395 0.20508,0.5996 0.009,0.0388 0.0117,0.0867 0.0195,0.12696 0.0368,0.18959 0.065,0.39069 0.082,0.61133 0.009,0.1093 0.0117,0.22723 0.0156,0.34375 0.006,0.18164 0.008,0.37005 0.004,0.56836 -0.003,0.12425 -0.005,0.25039 -0.0117,0.38085 -0.007,0.13666 -0.0205,0.28455 -0.0313,0.42774 -0.0412,0.55077 -0.10195,1.1327 -0.19335,1.76953 0,0 0,0.002 0,0.002 -0.19284,1.34304 -0.50506,2.93677 -0.83008,4.54688 -0.006,0.0294 -0.01,0.0565 -0.0156,0.0859 -0.0623,0.30815 -0.12703,0.63091 -0.1914,0.94531 -0.47692,2.32915 -0.97697,4.7229 -1.36914,7.14258 0,0 0,0.002 0,0.002 -0.0163,0.10038 -0.0291,0.19869 -0.0449,0.29883 -0.15981,1.01231 -0.29777,2.01289 -0.39648,2.98242 -5.8e-4,0.006 -0.001,0.0119 -0.002,0.0176 -7e-5,6.3e-4 6e-5,10e-4 0,0.002 -0.0542,0.53492 -0.0975,1.06013 -0.12696,1.57422 0,0 0,0.002 0,0.002 -8.8e-4,0.0154 -10e-4,0.0296 -0.002,0.0449 -0.0138,0.24751 -0.0141,0.48288 -0.0215,0.72461 -0.008,0.24888 -0.0214,0.50407 -0.0215,0.7461 -3.6e-4,0.48477 0.014,0.95509 0.0469,1.4082 0.0297,0.40892 0.0807,0.79867 0.14062,1.17773 0.012,0.0757 0.0238,0.15211 0.0371,0.22657 0.0658,0.36951 0.14496,0.72506 0.24414,1.06054 0.0122,0.0413 0.0263,0.0803 0.0391,0.1211 0.0969,0.30989 0.21076,0.60256 0.33985,0.8789 0.0253,0.0541 0.0477,0.11135 0.0742,0.16407 0.0294,0.0584 0.0627,0.11325 0.0937,0.16992 0.0671,0.12256 0.13618,0.24303 0.21093,0.35742 0.0433,0.0662 0.0889,0.12996 0.13477,0.19336 0.0776,0.10718 0.15877,0.20973 0.24414,0.30859 0.0401,0.0465 0.0792,0.0941 0.12109,0.13868 0.13432,0.14298 0.27486,0.27945 0.42774,0.40234 0.46474,0.37356 0.91902,0.75279 1.36328,1.13867 0.33118,0.28766 0.65064,0.5826 0.9707,0.87695 0.1093,0.10052 0.22402,0.19755 0.33203,0.29883 0.01,0.009 0.0196,0.0183 0.0293,0.0274 0.0199,0.0187 0.0387,0.0379 0.0586,0.0566 0.53911,0.50819 1.05661,1.02957 1.56446,1.55664 0.13434,0.13948 0.26818,0.27914 0.40039,0.41992 0.90894,0.96746 1.77392,1.96205 2.58594,2.98828 0.35029,0.44271 0.6922,0.89064 1.02539,1.34375 0.33319,0.45311 0.65796,0.9118 0.97461,1.375 17.9661,26.28121 9.64824,68.5846 24.85742,98.4082 15.31158,30.02442 50.46643,46.08612 63.02539,78.72067 8.76151,22.767 19.3504,44.192 25.66992,67.0743 9.4413,34.1858 70.85047,5.6287 106.22266,7.0019 30.9454,1.2014 63.29638,3.5555 93.77148,-3.2441 -5.81894,-13.6164 -29.12585,-66.5071 -51.42187,-93.75784 -25.71432,-31.42855 -14.28711,-61.42969 -14.28711,-61.42969 l -25.71289,-30 -13.70118,-68.44727 c -5.13456,-4.24754 -10.58157,-8.29973 -14.6875,-13.47265 -9.45278,-11.90933 -25.9094,-15.15939 -39.20703,-21.83789 -9.82783,-4.93592 -17.6826,-12.5794 -21.38476,-22.67969 -3.47191,-9.47195 -7.12475,-18.81282 -11.92774,-27.69531 -9.79631,-32.30759 12.49269,-53.53627 6.96094,-81.625 -0.3069,-1.55796 -0.32052,-2.39395 -0.0937,-2.64454 z m 0.22461,0.90625 0.58203,1.01172 c 2.99539,2.57991 0.31708,-0.32732 -0.58203,-1.01172 z"
             style="fill:#19418e;fill-opacity:0.73232323;stroke:none;stroke-width:0.99999994px;stroke-linecap:butt;stroke-linejoin:miter;stroke-opacity:1"
             inkscape:connector-curvature="0"
             transform="matrix(0.26458333,0,0,0.26458333,-117.92857,-23.523809)" />
          <path
             inkscape:connector-curvature="0"
             id="path4988"
             d="m -232.27898,194.88807 c -2.17365,-0.76833 -5.97584,-1.64064 -8.44931,-1.93847 -3.36529,-0.40521 -5.70117,-1.32092 -9.28064,-3.63819 -4.31109,-2.79091 -5.15817,-3.06196 -8.57871,-2.74509 l -3.7953,0.35159 -4.11572,-7.12824 c -2.26363,-3.92053 -4.10789,-7.72123 -4.09835,-8.446 0.0342,-2.59568 2.95388,-7.46336 6.1353,-10.22874 3.86425,-3.35892 7.02836,-4.06742 13.22918,-2.96228 9.49289,1.69186 14.10695,0.61326 17.00949,-3.9762 l 1.54294,-2.43965 0.003,2.37978 c 0.002,1.30888 -0.75226,4.02576 -1.67529,6.03752 -2.36842,5.16207 -1.74058,10.40642 2.1854,18.25432 l 3.04976,6.09637 6.52623,3.16053 c 3.58942,1.7383 7.20722,3.96728 8.03954,4.9533 l 1.51332,1.79277 -4.08744,0.46676 c -2.24809,0.25672 -5.68804,0.67829 -7.64433,0.93682 -2.50039,0.33044 -4.7308,0.0551 -7.509,-0.9269 z"
             style="fill:#a8a8a8;fill-opacity:0.99512196;stroke:none;stroke-width:0.77732581;stroke-linecap:round;stroke-linejoin:miter;stroke-miterlimit:4;stroke-dasharray:none;stroke-dashoffset:0;stroke-opacity:1" />
        </g>
      </g>
      <g
         id="g4864">
        <g
           id="g4702">
          <g
             id="g4644">
            <g
               id="g4548"
               transform="matrix(1.036638,0,0,1,1.3017393,0)">
              <path
                 inkscape:connector-curvature="0"
                 id="path4497"
                 d="m -116.41667,147.32143 80.886908,151.94642 h -82.398808 z"
                 style="fill:#185fc0;fill-opacity:1;stroke:#000000;stroke-width:0.26458332px;stroke-linecap:butt;stroke-linejoin:miter;stroke-opacity:1" />
              <path
                 inkscape:connector-curvature="0"
                 id="path4527"
                 d="m -116.41667,147.32143 -0.17467,17.53691 c 0.50079,-0.0363 1.00124,-0.0707 1.5012,-0.093 1.86274,-0.0831 4.00709,-0.12517 5.41466,1.31878 0.87631,0.89896 1.82902,1.67076 3.31659,1.85828 0.30923,0.039 0.61088,0.0214 0.89762,-0.0408 z"
                 style="fill:#ffffff;fill-opacity:1;stroke:none;stroke-width:0.26458332px;stroke-linecap:butt;stroke-linejoin:miter;stroke-opacity:1" />
              <path
                 inkscape:connector-curvature="0"
                 id="path4534"
                 d="m -105.46127,167.9016 c -1.40275,0.56992 -2.70097,1.21014 -3.02824,2.81688 -0.87716,4.30646 0.98903,8.60031 1.32447,12.89431 0.24688,3.16031 3.12881,3.90207 5.80584,5.07824 2.622744,1.15231 -0.32875,5.15086 1.446944,6.39392 2.651892,1.85644 0.393575,4.94977 -0.435114,7.26623 -0.93239,2.60634 -2.77032,5.14824 -2.2624,8.12301 0.5405,3.16555 2.90795,5.38433 6.008941,6.88951 2.373558,1.15209 5.076846,1.76325 7.690485,1.06401 2.196401,-0.58761 5.612463,-1.02005 5.996535,-3.65817 0.1955,-1.34287 0.262525,-2.69099 0.251147,-4.04006 z"
                 style="fill:#ffffff;fill-opacity:1;stroke:none;stroke-width:0.26458332px;stroke-linecap:butt;stroke-linejoin:miter;stroke-opacity:1" />
            </g>
            <path
               style="fill:url(#linearGradient4637);fill-opacity:1;stroke:none;stroke-width:0.26899999;stroke-linecap:butt;stroke-linejoin:miter;stroke-miterlimit:4;stroke-dasharray:none;stroke-opacity:1"
               d="m -82.596652,213.97693 32.108039,83.34574 14.958851,1.94518 0,0 z"
               id="path4609"
               inkscape:connector-curvature="0"
               sodipodi:nodetypes="ccccc" />
          </g>
          <path
             inkscape:connector-curvature="0"
             id="path4646"
             d="m -119.38015,147.32157 -1.56735,151.94628 h 36.518704 z"
             style="fill:url(#linearGradient4677);fill-opacity:1;stroke:#000000;stroke-width:0.26938662px;stroke-linecap:butt;stroke-linejoin:miter;stroke-opacity:0" />
        </g>
        <path
           style="fill:url(#linearGradient4780-1);fill-opacity:1;stroke:#000000;stroke-width:0;stroke-linecap:butt;stroke-linejoin:miter;stroke-miterlimit:4;stroke-dasharray:none;stroke-opacity:0.97979796"
           d="m -104.87353,209.22621 a 0.64848809,0.76535309 0 0 0 -0.2806,0.0894 c -0.008,0.37958 0.0172,0.76501 0.0868,1.15859 0.56031,3.16555 3.01447,5.38432 6.229083,6.8895 2.46052,1.15209 5.26272,1.76326 7.97212,1.06402 2.27687,-0.58761 5.81802,-1.02006 6.21616,-3.65818 0.20267,-1.34287 0.27225,-2.69099 0.26045,-4.04006 l -0.65216,-1.18184 c 0.0573,2.59276 -0.28704,4.24727 -0.88263,5.25084 -0.63523,1.07037 -1.58136,1.56927 -3.01119,1.77922 -0.29975,0.044 -0.8955,0.17611 -1.72237,0.33331 -0.82686,0.1572 -1.84707,0.33344 -2.85099,0.44442 -1.00391,0.11097 -1.99563,0.15335 -2.72128,0.0615 -0.36283,-0.0459 -0.6588,-0.12815 -0.83509,-0.21756 -0.17628,-0.0894 -0.20072,-0.15556 -0.19999,-0.15348 l -0.0961,-0.2744 -0.22634,-0.12764 c 0,0 -0.91685,-0.50943 -1.85622,-1.04903 -0.46969,-0.26981 -0.944303,-0.54698 -1.309483,-0.76792 -0.1826,-0.11046 -0.33851,-0.20803 -0.44648,-0.27905 -0.054,-0.0355 -0.0972,-0.0659 -0.11989,-0.0827 -0.0226,-0.0167 -0.042,-0.0512 0.0377,0.0429 -1.12908,-1.33253 -1.25903,-0.58106 -2.97346,-4.81883 a 0.64848809,0.76535309 0 0 0 -0.61805,-0.46302 z"
           id="path4767-0"
           inkscape:connector-curvature="0" />
        <path
           style="fill:url(#linearGradient4813-9);fill-opacity:1;stroke:none;stroke-width:0.1;stroke-linecap:butt;stroke-linejoin:miter;stroke-miterlimit:4;stroke-dasharray:none;stroke-opacity:0.97979796"
           d="m -108.91356,183.65683 -0.88832,0.30541 c 0.003,0.0395 0.009,0.0789 0.0124,0.11834 0.0108,0.13323 0.0283,0.26065 0.0486,0.3855 0.63604,1.51953 1.61644,2.42349 2.53473,3.00705 0.79337,0.50419 1.53136,0.8263 1.95286,1.08159 0.11116,0.0448 0.22029,0.0901 0.33228,0.13488 l 0.69143,-0.69298 c -0.62847,-0.62848 -1.52638,-0.86358 -2.40451,-1.42162 -0.87812,-0.55805 -1.74075,-1.34884 -2.27944,-2.91817 z"
           id="path4782-1"
           inkscape:connector-curvature="0" />
      </g>
    </g>
  </g>
</svg>
