<?xml version="1.0" encoding="UTF-8" standalone="no"?>
<svg
   xmlns:dc="http://purl.org/dc/elements/1.1/"
   xmlns:cc="http://creativecommons.org/ns#"
   xmlns:rdf="http://www.w3.org/1999/02/22-rdf-syntax-ns#"
   xmlns:svg="http://www.w3.org/2000/svg"
   xmlns="http://www.w3.org/2000/svg"
   xmlns:sodipodi="http://sodipodi.sourceforge.net/DTD/sodipodi-0.dtd"
   xmlns:inkscape="http://www.inkscape.org/namespaces/inkscape"
   width="88.898788mm"
   height="96.602669mm"
   viewBox="0 0 88.898788 96.602668"
   version="1.1"
   id="svg8"
   inkscape:version="1.0.2 (e86c870, 2021-01-15)"
   sodipodi:docname="pencil.svg">
  <defs
     id="defs2" />
  <sodipodi:namedview
     id="base"
     pagecolor="#ffffff"
     bordercolor="#666666"
     borderopacity="1.0"
     inkscape:pageopacity="0.0"
     inkscape:pageshadow="2"
     inkscape:zoom="0.7"
     inkscape:cx="58.585644"
     inkscape:cy="110.92487"
     inkscape:document-units="mm"
     inkscape:current-layer="g982"
     inkscape:document-rotation="0"
     showgrid="false"
     inkscape:window-width="1366"
     inkscape:window-height="705"
     inkscape:window-x="-8"
     inkscape:window-y="-8"
     inkscape:window-maximized="1" />
  <metadata
     id="metadata5">
    <rdf:RDF>
      <cc:Work
         rdf:about="">
        <dc:format>image/svg+xml</dc:format>
        <dc:type
           rdf:resource="http://purl.org/dc/dcmitype/StillImage" />
        <dc:title />
      </cc:Work>
    </rdf:RDF>
  </metadata>
  <g
     inkscape:label="Layer 1"
     inkscape:groupmode="layer"
     id="layer1"
     transform="translate(-16.286686,-69.697945)">
    <path
       id="path900"
       style="fill:#bd7c7c;fill-opacity:1;stroke:#4f4f4f;stroke-width:0.264999;stroke-linecap:butt;stroke-linejoin:miter;stroke-miterlimit:4;stroke-dasharray:none;stroke-opacity:1"
       d="m 197.21787,201.00096 14.96963,14.13299" />
    <g
       id="g982">
      <path
         id="path959"
         style="mix-blend-mode:normal;fill:#565856;fill-opacity:1;stroke:#565856;stroke-width:5.66929;stroke-linecap:round;stroke-linejoin:round;stroke-miterlimit:4;stroke-dasharray:none;stroke-opacity:1"
         d="m 356.94531,266.26172 c -0.83818,-0.005 -1.687,7.5e-4 -2.53906,0.0156 -0.23738,0.004 -0.47665,0.0138 -0.71484,0.0195 -0.64112,0.0154 -1.28233,0.0337 -1.92774,0.0605 -0.26417,0.011 -0.52834,0.0261 -0.79297,0.0391 -0.58196,0.0285 -1.16315,0.0598 -1.74609,0.0977 -0.33841,0.022 -0.67538,0.0471 -1.01367,0.0723 -0.5374,0.0399 -1.07333,0.0829 -1.60938,0.13086 -0.32289,0.0289 -0.64477,0.058 -0.96679,0.0898 -0.57922,0.0573 -1.15535,0.12266 -1.73047,0.18945 -0.28156,0.0327 -0.56348,0.0627 -0.84375,0.0977 -0.60753,0.0758 -1.20852,0.15942 -1.8086,0.24609 -0.25247,0.0365 -0.50691,0.069 -0.75781,0.10742 -0.83514,0.12778 -1.66233,0.26485 -2.47656,0.41407 l -9.7207,1.78125 v 0.002 l -0.25391,0.28125 -39.90235,44.41016 0.16211,0.12695 -78.37304,87.82812 L 91.5625,534.91992 77.976562,579.74023 c -7.472602,24.65107 -13.585937,45.07655 -13.585937,45.39063 0,0.31408 0.341123,0.57204 0.757813,0.57226 0.416681,1.9e-4 17.804271,-7.33078 38.638672,-16.28906 l 37.87891,-16.28711 121.7246,-132.70117 c 66.87179,-72.90299 123.7098,-134.96388 126.47071,-138.08789 0.003,-0.003 0.0498,-0.0514 0.0527,-0.0547 v -0.002 l 4.80274,-5.44141 -1.54883,-13.50586 c -7e-5,-6.3e-4 7e-5,-10e-4 0,-0.002 -0.74499,-6.50009 -1.8705,-13.71382 -2.67383,-17.28711 -0.1146,-0.50974 -0.22281,-0.94606 -0.32226,-1.29492 -1.7e-4,-6e-4 1.6e-4,-10e-4 0,-0.002 -0.24172,-0.84754 -0.53618,-1.68184 -0.87891,-2.5 -0.34251,-0.81764 -0.73443,-1.61906 -1.16992,-2.39844 -2.8e-4,-4.9e-4 2.7e-4,-10e-4 0,-0.002 -0.43584,-0.77986 -0.91647,-1.53693 -1.4375,-2.26954 -0.78155,-1.0989 -1.65449,-2.13998 -2.60547,-3.10742 -1.26798,-1.28991 -2.67367,-2.44977 -4.1875,-3.44336 -4.7e-4,-3e-4 -0.001,3.1e-4 -0.002,0 -0.37799,-0.2481 -0.76148,-0.48605 -1.15234,-0.71289 -4.9e-4,-2.8e-4 -10e-4,2.9e-4 -0.002,0 -0.39136,-0.22709 -0.78815,-0.44378 -1.19141,-0.64843 -0.40325,-0.20465 -0.81239,-0.39899 -1.22656,-0.58008 -0.49453,-0.21624 -1.03962,-0.41732 -1.61914,-0.60938 -0.16558,-0.0549 -0.35134,-0.10335 -0.52344,-0.15625 -0.42268,-0.12989 -0.85247,-0.25716 -1.3125,-0.375 -0.24529,-0.0629 -0.50642,-0.12028 -0.76172,-0.17969 -0.42266,-0.0983 -0.85026,-0.19437 -1.29883,-0.2832 -0.28972,-0.0574 -0.58879,-0.11065 -0.88867,-0.16406 -0.45067,-0.0802 -0.90872,-0.15732 -1.38086,-0.22852 -0.30997,-0.0468 -0.62281,-0.09 -0.9414,-0.13281 -0.4887,-0.0657 -0.98662,-0.12716 -1.49414,-0.18359 -0.33658,-0.0374 -0.67144,-0.0741 -1.01563,-0.10742 -0.53909,-0.0522 -1.09033,-0.0966 -1.64648,-0.13868 -0.30699,-0.0232 -0.60822,-0.0502 -0.91993,-0.0703 -0.67144,-0.0434 -1.35598,-0.0746 -2.04687,-0.10351 -0.23047,-0.01 -0.45512,-0.0232 -0.6875,-0.0312 -0.93214,-0.0323 -1.8761,-0.0545 -2.83398,-0.0605 -6.6e-4,-10e-6 -0.001,0 -0.002,0 z"
         transform="scale(0.26458333)" />
      <path
         id="path961"
         style="fill:#ffffff;fill-opacity:1;stroke:#565856;stroke-width:1.5;stroke-linecap:round;stroke-linejoin:round;stroke-miterlimit:4;stroke-dasharray:none;stroke-opacity:1"
         d="m 27.616134,137.73116 -3.389974,3.79925 -3.594612,11.85871 c -1.977126,6.52226 -3.594613,11.9265 -3.594613,12.0096 0,0.0831 0.09026,0.15135 0.200505,0.15142 0.110247,5e-5 4.710197,-1.93909 10.222632,-4.3093 l 10.022643,-4.3093 5.266346,-5.74125 z" />
    </g>
  </g>
</svg>
