<?xml version="1.0" encoding="UTF-8" standalone="no"?>
<svg
   xmlns:dc="http://purl.org/dc/elements/1.1/"
   xmlns:cc="http://creativecommons.org/ns#"
   xmlns:rdf="http://www.w3.org/1999/02/22-rdf-syntax-ns#"
   xmlns:svg="http://www.w3.org/2000/svg"
   xmlns="http://www.w3.org/2000/svg"
   xmlns:sodipodi="http://sodipodi.sourceforge.net/DTD/sodipodi-0.dtd"
   xmlns:inkscape="http://www.inkscape.org/namespaces/inkscape"
   width="88.898849mm"
   height="96.602737mm"
   viewBox="0 0 88.898849 96.602737"
   version="1.1"
   id="svg8"
   inkscape:version="1.0.2 (e86c870, 2021-01-15)"
   sodipodi:docname="pencil.svg">
  <defs
     id="defs2" />
  <sodipodi:namedview
     id="base"
     pagecolor="#ffffff"
     bordercolor="#666666"
     borderopacity="1.0"
     inkscape:pageopacity="0.0"
     inkscape:pageshadow="2"
     inkscape:zoom="0.7"
     inkscape:cx="260.75669"
     inkscape:cy="256.65399"
     inkscape:document-units="mm"
     inkscape:current-layer="layer1"
     inkscape:document-rotation="0"
     showgrid="false"
     inkscape:window-width="1366"
     inkscape:window-height="705"
     inkscape:window-x="-8"
     inkscape:window-y="-8"
     inkscape:window-maximized="1" />
  <metadata
     id="metadata5">
    <rdf:RDF>
      <cc:Work
         rdf:about="">
        <dc:format>image/svg+xml</dc:format>
        <dc:type
           rdf:resource="http://purl.org/dc/dcmitype/StillImage" />
        <dc:title />
      </cc:Work>
    </rdf:RDF>
  </metadata>
  <g
     inkscape:label="Layer 1"
     inkscape:groupmode="layer"
     id="layer1"
     transform="translate(-15.908611,-69.320145)">
    <g
       id="g982">
      <path
         id="path842"
         style="mix-blend-mode:normal;fill:#565856;fill-opacity:1;stroke:#565856;stroke-width:1.5;stroke-linecap:round;stroke-linejoin:round;stroke-miterlimit:4;stroke-dasharray:none;stroke-opacity:1"
         d="m 94.063703,70.070162 v 5.19e-4 c -0.221768,-0.0013 -0.446353,-2.86e-4 -0.671794,0.0036 -0.06281,0.0011 -0.126113,0.0042 -0.189135,0.0057 -0.169629,0.0041 -0.339283,0.0089 -0.510047,0.01602 -0.06989,0.0029 -0.139789,0.0069 -0.209806,0.01033 -0.153977,0.0075 -0.307751,0.01581 -0.461987,0.02584 -0.08954,0.0058 -0.178695,0.01245 -0.268201,0.01912 -0.142187,0.01056 -0.283984,0.02193 -0.425814,0.03462 -0.08543,0.0076 -0.170597,0.01536 -0.255798,0.02377 -0.153252,0.01516 -0.305687,0.03245 -0.457853,0.05013 -0.0745,0.0087 -0.149088,0.01658 -0.223243,0.02584 -0.160742,0.02006 -0.319752,0.04218 -0.478523,0.06511 -0.0668,0.0097 -0.134121,0.01826 -0.200505,0.02842 -0.220964,0.03381 -0.439825,0.07007 -0.655257,0.109553 l -2.571936,0.471292 v 5.16e-4 l -0.06718,0.07441 -8.907467,9.913607 17.145723,12.842626 c 4.549191,-4.969017 7.80878,-8.533972 8.11785,-8.883695 8e-4,-7.94e-4 0.0132,-0.0136 0.014,-0.01447 v -5.17e-4 l 1.27073,-1.439705 -0.4098,-3.573426 c -1e-5,-1.64e-4 2e-5,-7.67e-4 0,-0.001 -0.19711,-1.719815 -0.4949,-3.628448 -0.70745,-4.573881 -0.0303,-0.134869 -0.059,-0.250314 -0.0853,-0.342614 0,0 0,-5.19e-4 0,-5.19e-4 -0.064,-0.224245 -0.14187,-0.444987 -0.23255,-0.661458 -0.0906,-0.216334 -0.19431,-0.428376 -0.30954,-0.634587 0,0 0,-5.16e-4 0,-5.16e-4 -0.11531,-0.206338 -0.24248,-0.406644 -0.38034,-0.60048 -0.20678,-0.290751 -0.43775,-0.566203 -0.68936,-0.822172 -0.33549,-0.341288 -0.70741,-0.648168 -1.10794,-0.911055 0,0 -5.2e-4,0 -5.2e-4,0 -0.10001,-0.06564 -0.201477,-0.128601 -0.304892,-0.188619 0,0 -5.17e-4,0 -5.17e-4,0 -0.103546,-0.06008 -0.20853,-0.11742 -0.315226,-0.171567 -0.106693,-0.05415 -0.214945,-0.105566 -0.324528,-0.153479 -0.130844,-0.05721 -0.275066,-0.110413 -0.428397,-0.161229 -0.04381,-0.01452 -0.09296,-0.02734 -0.138493,-0.04134 -0.111835,-0.03437 -0.22555,-0.06804 -0.347266,-0.09922 -0.0649,-0.01664 -0.133989,-0.03182 -0.201538,-0.04754 -0.111828,-0.02601 -0.224964,-0.05143 -0.343648,-0.07493 -0.07666,-0.01519 -0.155784,-0.02928 -0.235128,-0.04341 -0.119239,-0.02122 -0.240432,-0.04162 -0.365352,-0.06046 -0.08201,-0.01238 -0.164787,-0.02381 -0.249081,-0.03514 -0.129302,-0.01738 -0.261044,-0.03365 -0.395324,-0.04858 -0.08905,-0.0099 -0.177651,-0.01961 -0.268718,-0.02842 -0.142634,-0.01381 -0.288484,-0.02556 -0.435632,-0.03669 -0.08122,-0.0061 -0.160923,-0.01328 -0.243396,-0.0186 -0.177652,-0.01148 -0.358771,-0.01974 -0.541569,-0.02739 -0.06098,-0.0026 -0.120417,-0.0061 -0.181901,-0.0083 -0.246629,-0.0085 -0.496386,-0.01443 -0.749825,-0.01602 0,0 -5.17e-4,0 -5.17e-4,0 z M 73.426203,85.593247 55.16582,106.0566 23.847834,141.15316 20.253221,153.01187 c -1.977125,6.52226 -3.59461,11.9265 -3.59461,12.0096 0,0.0831 0.09026,0.15136 0.200503,0.15141 0.110247,5e-5 4.710713,-1.9396 10.223148,-4.30981 l 10.022129,-4.3093 32.206301,-35.11052 c 8.10617,-8.83727 15.288414,-16.67409 21.159432,-23.083341 z" />
    </g>
  </g>
</svg>
