<?xml version="1.0" encoding="UTF-8" standalone="no"?>
<svg
   xmlns:dc="http://purl.org/dc/elements/1.1/"
   xmlns:cc="http://creativecommons.org/ns#"
   xmlns:rdf="http://www.w3.org/1999/02/22-rdf-syntax-ns#"
   xmlns:svg="http://www.w3.org/2000/svg"
   xmlns="http://www.w3.org/2000/svg"
   xmlns:sodipodi="http://sodipodi.sourceforge.net/DTD/sodipodi-0.dtd"
   xmlns:inkscape="http://www.inkscape.org/namespaces/inkscape"
   width="127.16741mm"
   height="93.316902mm"
   viewBox="0 0 127.16741 93.316902"
   version="1.1"
   id="svg884"
   inkscape:version="1.0.2 (e86c870, 2021-01-15)"
   sodipodi:docname="q-edit.svg">
  <defs
     id="defs878" />
  <sodipodi:namedview
     id="base"
     pagecolor="#ffffff"
     bordercolor="#666666"
     borderopacity="1.0"
     inkscape:pageopacity="0.0"
     inkscape:pageshadow="2"
     inkscape:zoom="0.35"
     inkscape:cx="154.06369"
     inkscape:cy="272.9946"
     inkscape:document-units="mm"
     inkscape:current-layer="text2056"
     inkscape:document-rotation="0"
     showgrid="false"
     showguides="true"
     inkscape:guide-bbox="true"
     inkscape:window-width="1366"
     inkscape:window-height="705"
     inkscape:window-x="-8"
     inkscape:window-y="-8"
     inkscape:window-maximized="1">
    <sodipodi:guide
       position="42.652562,1.4323277"
       orientation="0,-1"
       id="guide2058" />
  </sodipodi:namedview>
  <metadata
     id="metadata881">
    <rdf:RDF>
      <cc:Work
         rdf:about="">
        <dc:format>image/svg+xml</dc:format>
        <dc:type
           rdf:resource="http://purl.org/dc/dcmitype/StillImage" />
        <dc:title />
      </cc:Work>
    </rdf:RDF>
  </metadata>
  <g
     inkscape:label="Layer 1"
     inkscape:groupmode="layer"
     id="layer1"
     transform="translate(-30.674815,-75.936845)">
    <path
       id="path842"
       style="mix-blend-mode:normal;fill:#565856;fill-opacity:1;stroke:#565856;stroke-width:1.5;stroke-linecap:round;stroke-linejoin:round;stroke-miterlimit:4;stroke-dasharray:none;stroke-opacity:1"
       d="m 147.44429,76.686881 v 5.01e-4 c -0.2141,-0.0013 -0.43092,-2.76e-4 -0.64856,0.0035 -0.0606,0.0011 -0.12174,0.0041 -0.18258,0.0055 -0.16376,0.004 -0.32755,0.0086 -0.49241,0.01547 -0.0675,0.0028 -0.13495,0.0067 -0.20255,0.01 -0.14864,0.0072 -0.2971,0.01526 -0.44599,0.02495 -0.0864,0.0056 -0.17252,0.01202 -0.25892,0.01846 -0.13727,0.01019 -0.27417,0.02117 -0.41109,0.03342 -0.0824,0.0073 -0.1647,0.01483 -0.24695,0.02295 -0.14795,0.01464 -0.29511,0.03133 -0.44201,0.0484 -0.0719,0.0084 -0.14393,0.01601 -0.21552,0.02495 -0.15518,0.01937 -0.30868,0.04072 -0.46197,0.06286 -0.0645,0.0094 -0.12948,0.01763 -0.19356,0.02744 -0.21332,0.03264 -0.42462,0.06765 -0.63259,0.105768 l -2.48295,0.45495 v 4.98e-4 l -0.0649,0.07184 -8.59929,9.571087 16.55252,12.398906 c 4.3918,-4.797335 7.53861,-8.239119 7.83699,-8.576759 7.7e-4,-7.66e-4 0.0127,-0.01313 0.0135,-0.01397 v -4.99e-4 l 1.22677,-1.389962 -0.39562,-3.449962 c -1e-5,-1.59e-4 2e-5,-7.41e-4 0,-9.66e-4 -0.19029,-1.660394 -0.47778,-3.503083 -0.68298,-4.415851 -0.0292,-0.130209 -0.057,-0.241665 -0.0823,-0.330776 0,0 0,-5.01e-4 0,-5.01e-4 -0.0618,-0.216498 -0.13697,-0.429613 -0.22451,-0.638605 -0.0875,-0.208859 -0.18759,-0.413575 -0.29883,-0.612661 0,0 0,-4.98e-4 0,-4.98e-4 -0.11132,-0.199209 -0.23409,-0.392595 -0.36718,-0.579734 -0.19963,-0.280705 -0.4226,-0.54664 -0.66551,-0.793765 -0.32388,-0.329496 -0.68293,-0.625773 -1.06961,-0.879578 0,0 -5e-4,0 -5e-4,0 -0.0966,-0.06337 -0.1945,-0.124157 -0.29434,-0.182102 0,0 -5e-4,0 -5e-4,0 -0.1,-0.058 -0.20132,-0.113363 -0.30432,-0.165639 -0.10301,-0.05228 -0.20751,-0.101919 -0.3133,-0.148176 -0.12631,-0.05523 -0.26555,-0.106598 -0.41358,-0.155659 -0.0423,-0.01402 -0.0898,-0.0264 -0.1337,-0.03991 -0.10797,-0.03318 -0.21774,-0.06569 -0.33525,-0.09579 -0.0627,-0.01606 -0.12936,-0.03072 -0.19456,-0.0459 -0.10796,-0.02511 -0.21719,-0.04965 -0.33176,-0.07234 -0.074,-0.01466 -0.1504,-0.02827 -0.22699,-0.04191 -0.11512,-0.02049 -0.23212,-0.04018 -0.35271,-0.05837 -0.0792,-0.01195 -0.15909,-0.02299 -0.24047,-0.03393 -0.12483,-0.01678 -0.25201,-0.03249 -0.38165,-0.0469 -0.086,-0.0096 -0.1715,-0.01893 -0.25942,-0.02744 -0.1377,-0.01333 -0.2785,-0.02468 -0.42056,-0.03542 -0.0784,-0.0059 -0.15535,-0.01282 -0.23497,-0.01796 -0.17151,-0.01108 -0.34636,-0.01906 -0.52283,-0.02644 -0.0589,-0.0025 -0.11626,-0.0059 -0.17561,-0.008 -0.2381,-0.0082 -0.47921,-0.01393 -0.72389,-0.01547 0,0 -5e-4,0 -5e-4,0 z m -19.92349,14.986754 -17.62862,19.756335 -30.234445,33.88395 -3.470247,11.44899 c -1.908721,6.29691 -3.470244,11.51443 -3.470244,11.59466 0,0.0802 0.08714,0.14613 0.193566,0.14618 0.106433,5e-5 4.547732,-1.87259 9.869449,-4.1609 l 9.675385,-4.16042 31.092026,-33.89743 c 7.82572,-8.53194 14.75948,-16.09799 20.42737,-22.2858 z" />
    <g
       aria-label="?"
       id="text2056"
       style="font-style:normal;font-variant:normal;font-weight:normal;font-stretch:normal;font-size:128px;line-height:1.25;font-family:'Ubuntu Mono';-inkscape-font-specification:'Ubuntu Mono';letter-spacing:0px;word-spacing:0px;fill:#424442;fill-opacity:1;stroke:none;stroke-width:0.264583">
      <path
         d="m 42.578815,131.74202 -0.128,-2.432 q 0,-5.504 2.816,-9.472 2.816,-4.096 6.144,-7.552 3.456,-3.456 6.272,-6.912 2.816,-3.456 2.816,-7.936005 0,-4.864 -3.072,-7.808 -3.072,-2.944 -9.088,-2.944 -3.712,0 -7.424,0.896 -3.584,0.896 -7.296,2.944 l -2.944,-8.192 q 3.84,-2.176 8.704,-3.328 4.864,-1.28 10.368,-1.28 6.528,0 10.624,1.792 4.224,1.792 6.656,4.608 2.432,2.688 3.328,6.016 1.024,3.328 1.024,6.4 0,3.840005 -1.536,6.912005 -1.408,2.944 -3.584,5.632 -2.176,2.688 -4.736,5.12 -2.56,2.432 -4.736,5.12 -2.176,2.56 -3.712,5.632 -1.408,3.072 -1.408,6.784 z m 5.504,28.544 q -3.584,0 -6.144,-2.304 -2.432,-2.432 -2.432,-6.4 0,-3.968 2.432,-6.272 2.56,-2.432 6.144,-2.432 3.456,0 6.016,2.432 2.56,2.304 2.56,6.272 0,3.968 -2.56,6.4 -2.56,2.304 -6.016,2.304 z"
         style="font-style:normal;font-variant:normal;font-weight:normal;font-stretch:normal;font-size:128px;font-family:'Ubuntu Mono';-inkscape-font-specification:'Ubuntu Mono';fill:#424442;fill-opacity:1;stroke-width:0.264583"
         id="path2639" />
    </g>
  </g>
</svg>
